<?xml version="1.0" encoding="UTF-8" standalone="no"?>
<!DOCTYPE svg PUBLIC "-//W3C//DTD SVG 1.1//EN"
 "http://www.w3.org/Graphics/SVG/1.1/DTD/svg11.dtd">
<!-- Generated by graphviz version 2.36.0 (20140111.2315)
 -->
<!-- Title: src/base/std_ext/system.h Pages: 1 -->
<svg width="4214pt" height="96pt"
 viewBox="0.00 0.00 4214.00 96.00" xmlns="http://www.w3.org/2000/svg" xmlns:xlink="http://www.w3.org/1999/xlink">
<g id="graph0" class="graph" transform="scale(1 1) rotate(0) translate(4 92)">
<title>src/base/std_ext/system.h</title>
<polygon fill="white" stroke="none" points="-4,4 -4,-92 4210,-92 4210,4 -4,4"/>
<!-- Node3 -->
<g id="node1" class="node"><title>Node3</title>
<polygon fill="#bfbfbf" stroke="black" points="2057.5,-68.5 2057.5,-87.5 2190.5,-87.5 2190.5,-68.5 2057.5,-68.5"/>
<text text-anchor="middle" x="2124" y="-75.5" font-family="Helvetica,sans-Serif" font-size="10.00">src/base/std_ext/system.h</text>
</g>
<!-- Node4 -->
<g id="node2" class="node"><title>Node4</title>
<g id="a_node2"><a xlink:href="_ant-alt_veto_cal_tool_8cc.html" target="_top" xlink:title="progs/Ant&#45;altVetoCalTool.cc">
<polygon fill="white" stroke="black" points="0,-6.5 0,-25.5 140,-25.5 140,-6.5 0,-6.5"/>
<text text-anchor="middle" x="70" y="-13.5" font-family="Helvetica,sans-Serif" font-size="10.00">progs/Ant&#45;altVetoCalTool.cc</text>
</a>
</g>
</g>
<!-- Node3&#45;&gt;Node4 -->
<g id="edge1" class="edge"><title>Node3&#45;&gt;Node4</title>
<path fill="none" stroke="midnightblue" d="M2046.84,-76.9421C1729.86,-76.4417 526.819,-71.8978 149,-32 135.533,-30.5779 120.93,-28.08 107.984,-25.5256"/>
<polygon fill="midnightblue" stroke="midnightblue" points="2047.29,-80.4427 2057.29,-76.9577 2047.3,-73.4427 2047.29,-80.4427"/>
</g>
<!-- Node5 -->
<g id="node3" class="node"><title>Node5</title>
<g id="a_node3"><a xlink:href="_ant-calib-dump_8cc.html" target="_top" xlink:title="progs/Ant&#45;calib&#45;dump.cc">
<polygon fill="white" stroke="black" points="158,-6.5 158,-25.5 280,-25.5 280,-6.5 158,-6.5"/>
<text text-anchor="middle" x="219" y="-13.5" font-family="Helvetica,sans-Serif" font-size="10.00">progs/Ant&#45;calib&#45;dump.cc</text>
</a>
</g>
</g>
<!-- Node3&#45;&gt;Node5 -->
<g id="edge2" class="edge"><title>Node3&#45;&gt;Node5</title>
<path fill="none" stroke="midnightblue" d="M2047.08,-77.0256C1744.74,-76.8298 637.526,-73.2494 289,-32 277.028,-30.583 264.078,-28.0863 252.611,-25.5315"/>
<polygon fill="midnightblue" stroke="midnightblue" points="2047.49,-80.5257 2057.49,-77.0312 2047.5,-73.5257 2047.49,-80.5257"/>
</g>
<!-- Node6 -->
<g id="node4" class="node"><title>Node6</title>
<g id="a_node4"><a xlink:href="_ant-calib-readin_8cc.html" target="_top" xlink:title="progs/Ant&#45;calib&#45;readin.cc">
<polygon fill="white" stroke="black" points="298.5,-6.5 298.5,-25.5 423.5,-25.5 423.5,-6.5 298.5,-6.5"/>
<text text-anchor="middle" x="361" y="-13.5" font-family="Helvetica,sans-Serif" font-size="10.00">progs/Ant&#45;calib&#45;readin.cc</text>
</a>
</g>
</g>
<!-- Node3&#45;&gt;Node6 -->
<g id="edge3" class="edge"><title>Node3&#45;&gt;Node6</title>
<path fill="none" stroke="midnightblue" d="M2046.97,-76.7792C1759.83,-75.6716 751.941,-69.1641 433,-32 420.698,-30.5665 407.381,-28.0658 395.586,-25.5124"/>
<polygon fill="midnightblue" stroke="midnightblue" points="2047.27,-80.2803 2057.28,-76.8179 2047.3,-73.2803 2047.27,-80.2803"/>
</g>
<!-- Node7 -->
<g id="node5" class="node"><title>Node7</title>
<g id="a_node5"><a xlink:href="_ant-calib-regedit_8cc.html" target="_top" xlink:title="progs/Ant&#45;calib&#45;regedit.cc">
<polygon fill="white" stroke="black" points="442,-6.5 442,-25.5 570,-25.5 570,-6.5 442,-6.5"/>
<text text-anchor="middle" x="506" y="-13.5" font-family="Helvetica,sans-Serif" font-size="10.00">progs/Ant&#45;calib&#45;regedit.cc</text>
</a>
</g>
</g>
<!-- Node3&#45;&gt;Node7 -->
<g id="edge4" class="edge"><title>Node3&#45;&gt;Node7</title>
<path fill="none" stroke="midnightblue" d="M2047.34,-76.528C1776.9,-74.5877 868.146,-65.6595 579,-32 566.662,-30.5638 553.312,-28.0954 541.444,-25.5708"/>
<polygon fill="midnightblue" stroke="midnightblue" points="2047.43,-80.0286 2057.45,-76.5994 2047.48,-73.0288 2047.43,-80.0286"/>
</g>
<!-- Node8 -->
<g id="node6" class="node"><title>Node8</title>
<g id="a_node6"><a xlink:href="_ant-calib-smooth_8cc.html" target="_top" xlink:title="progs/Ant&#45;calib&#45;smooth.cc">
<polygon fill="white" stroke="black" points="588.5,-6.5 588.5,-25.5 719.5,-25.5 719.5,-6.5 588.5,-6.5"/>
<text text-anchor="middle" x="654" y="-13.5" font-family="Helvetica,sans-Serif" font-size="10.00">progs/Ant&#45;calib&#45;smooth.cc</text>
</a>
</g>
</g>
<!-- Node3&#45;&gt;Node8 -->
<g id="edge5" class="edge"><title>Node3&#45;&gt;Node8</title>
<path fill="none" stroke="midnightblue" d="M2047.17,-76.2218C1793.88,-73.3894 986.645,-62.1665 728,-32 715.501,-30.5422 701.969,-28.0683 689.938,-25.5455"/>
<polygon fill="midnightblue" stroke="midnightblue" points="2047.34,-79.7238 2057.38,-76.3348 2047.42,-72.7242 2047.34,-79.7238"/>
</g>
<!-- Node9 -->
<g id="node7" class="node"><title>Node9</title>
<g id="a_node7"><a xlink:href="_ant-calib-viewer_8cc.html" target="_top" xlink:title="progs/Ant&#45;calib&#45;viewer.cc">
<polygon fill="white" stroke="black" points="737.5,-6.5 737.5,-25.5 864.5,-25.5 864.5,-6.5 737.5,-6.5"/>
<text text-anchor="middle" x="801" y="-13.5" font-family="Helvetica,sans-Serif" font-size="10.00">progs/Ant&#45;calib&#45;viewer.cc</text>
</a>
</g>
</g>
<!-- Node3&#45;&gt;Node9 -->
<g id="edge6" class="edge"><title>Node3&#45;&gt;Node9</title>
<path fill="none" stroke="midnightblue" d="M2047.31,-75.9148C1812.09,-72.3213 1102.92,-59.4451 874,-32 861.667,-30.5214 848.319,-28.0424 836.45,-25.5212"/>
<polygon fill="midnightblue" stroke="midnightblue" points="2047.43,-79.4169 2057.49,-76.0689 2047.54,-72.4177 2047.43,-79.4169"/>
</g>
<!-- Node10 -->
<g id="node8" class="node"><title>Node10</title>
<g id="a_node8"><a xlink:href="_ant-chain_8cc.html" target="_top" xlink:title="hadd like tool to concatenate TTrees in ROOT files using TChains. ">
<polygon fill="white" stroke="black" points="883,-6.5 883,-25.5 981,-25.5 981,-6.5 883,-6.5"/>
<text text-anchor="middle" x="932" y="-13.5" font-family="Helvetica,sans-Serif" font-size="10.00">progs/Ant&#45;chain.cc</text>
</a>
</g>
</g>
<!-- Node3&#45;&gt;Node10 -->
<g id="edge7" class="edge"><title>Node3&#45;&gt;Node10</title>
<path fill="none" stroke="midnightblue" d="M2047.27,-76.0877C1826.88,-73.1288 1194.71,-62.1789 990,-32 980.122,-30.5438 969.496,-28.0703 960.073,-25.5474"/>
<polygon fill="midnightblue" stroke="midnightblue" points="2047.4,-79.5897 2057.45,-76.2226 2047.5,-72.5903 2047.4,-79.5897"/>
</g>
<!-- Node11 -->
<g id="node9" class="node"><title>Node11</title>
<g id="a_node9"><a xlink:href="_ant-fake_raw_8cc.html" target="_top" xlink:title="progs/Ant&#45;fakeRaw.cc">
<polygon fill="white" stroke="black" points="999,-6.5 999,-25.5 1113,-25.5 1113,-6.5 999,-6.5"/>
<text text-anchor="middle" x="1056" y="-13.5" font-family="Helvetica,sans-Serif" font-size="10.00">progs/Ant&#45;fakeRaw.cc</text>
</a>
</g>
</g>
<!-- Node3&#45;&gt;Node11 -->
<g id="edge8" class="edge"><title>Node3&#45;&gt;Node11</title>
<path fill="none" stroke="midnightblue" d="M2046.91,-75.3202C1844.35,-70.6208 1300.42,-56.0846 1122,-32 1110.94,-30.5067 1099,-28.056 1088.35,-25.5642"/>
<polygon fill="midnightblue" stroke="midnightblue" points="2047.08,-78.825 2057.16,-75.5564 2047.24,-71.8269 2047.08,-78.825"/>
</g>
<!-- Node12 -->
<g id="node10" class="node"><title>Node12</title>
<g id="a_node10"><a xlink:href="_ant-hadd_8cc.html" target="_top" xlink:title="progs/Ant&#45;hadd.cc">
<polygon fill="white" stroke="black" points="1131,-6.5 1131,-25.5 1227,-25.5 1227,-6.5 1131,-6.5"/>
<text text-anchor="middle" x="1179" y="-13.5" font-family="Helvetica,sans-Serif" font-size="10.00">progs/Ant&#45;hadd.cc</text>
</a>
</g>
</g>
<!-- Node3&#45;&gt;Node12 -->
<g id="edge9" class="edge"><title>Node3&#45;&gt;Node12</title>
<path fill="none" stroke="midnightblue" d="M2047.27,-75.1486C1861.48,-70.3368 1391.32,-56.107 1236,-32 1226.39,-30.5091 1216.07,-28.059 1206.88,-25.567"/>
<polygon fill="midnightblue" stroke="midnightblue" points="2047.41,-78.6533 2057.5,-75.4114 2047.59,-71.6556 2047.41,-78.6533"/>
</g>
<!-- Node13 -->
<g id="node11" class="node"><title>Node13</title>
<g id="a_node11"><a xlink:href="_ant-make_sigmas_8cc.html" target="_top" xlink:title="progs/Ant&#45;makeSigmas.cc">
<polygon fill="white" stroke="black" points="1245,-6.5 1245,-25.5 1377,-25.5 1377,-6.5 1245,-6.5"/>
<text text-anchor="middle" x="1311" y="-13.5" font-family="Helvetica,sans-Serif" font-size="10.00">progs/Ant&#45;makeSigmas.cc</text>
</a>
</g>
</g>
<!-- Node3&#45;&gt;Node13 -->
<g id="edge10" class="edge"><title>Node3&#45;&gt;Node13</title>
<path fill="none" stroke="midnightblue" d="M2047.1,-75.7621C1912.56,-72.8278 1625.9,-63.1566 1386,-32 1373.75,-30.4096 1360.51,-27.9951 1348.6,-25.5652"/>
<polygon fill="midnightblue" stroke="midnightblue" points="2047.23,-79.2655 2057.31,-75.978 2047.38,-72.2671 2047.23,-79.2655"/>
</g>
<!-- Node14 -->
<g id="node12" class="node"><title>Node14</title>
<g id="a_node12"><a xlink:href="_ant-make_tagg_eff_8cc.html" target="_top" xlink:title="progs/Ant&#45;makeTaggEff.cc">
<polygon fill="white" stroke="black" points="1395,-6.5 1395,-25.5 1529,-25.5 1529,-6.5 1395,-6.5"/>
<text text-anchor="middle" x="1462" y="-13.5" font-family="Helvetica,sans-Serif" font-size="10.00">progs/Ant&#45;makeTaggEff.cc</text>
</a>
</g>
</g>
<!-- Node3&#45;&gt;Node14 -->
<g id="edge11" class="edge"><title>Node3&#45;&gt;Node14</title>
<path fill="none" stroke="midnightblue" d="M2047.17,-73.9987C1934.9,-68.9574 1719.61,-56.8069 1538,-32 1525.74,-30.3255 1512.48,-27.9173 1500.51,-25.519"/>
<polygon fill="midnightblue" stroke="midnightblue" points="2047.23,-77.5049 2057.38,-74.4503 2047.54,-70.5117 2047.23,-77.5049"/>
</g>
<!-- Node15 -->
<g id="node13" class="node"><title>Node15</title>
<g id="a_node13"><a xlink:href="_ant-mc-pi0gun_8cc.html" target="_top" xlink:title="progs/Ant&#45;mc&#45;pi0gun.cc">
<polygon fill="white" stroke="black" points="1547,-6.5 1547,-25.5 1667,-25.5 1667,-6.5 1547,-6.5"/>
<text text-anchor="middle" x="1607" y="-13.5" font-family="Helvetica,sans-Serif" font-size="10.00">progs/Ant&#45;mc&#45;pi0gun.cc</text>
</a>
</g>
</g>
<!-- Node3&#45;&gt;Node15 -->
<g id="edge12" class="edge"><title>Node3&#45;&gt;Node15</title>
<path fill="none" stroke="midnightblue" d="M2047.22,-71.9613C1957.72,-65.4708 1805.54,-52.518 1676,-32 1665.1,-30.274 1653.34,-27.9076 1642.67,-25.5645"/>
<polygon fill="midnightblue" stroke="midnightblue" points="2047.06,-75.4586 2057.28,-72.683 2047.56,-68.4766 2047.06,-75.4586"/>
</g>
<!-- Node16 -->
<g id="node14" class="node"><title>Node16</title>
<g id="a_node14"><a xlink:href="_ant-plot_8cc.html" target="_top" xlink:title="progs/Ant&#45;plot.cc">
<polygon fill="white" stroke="black" points="1685.5,-6.5 1685.5,-25.5 1776.5,-25.5 1776.5,-6.5 1685.5,-6.5"/>
<text text-anchor="middle" x="1731" y="-13.5" font-family="Helvetica,sans-Serif" font-size="10.00">progs/Ant&#45;plot.cc</text>
</a>
</g>
</g>
<!-- Node3&#45;&gt;Node16 -->
<g id="edge13" class="edge"><title>Node3&#45;&gt;Node16</title>
<path fill="none" stroke="midnightblue" d="M2046.94,-69.8546C1977.89,-62.7227 1874.08,-50.1929 1785,-32 1776.42,-30.2477 1767.2,-27.8736 1758.85,-25.5314"/>
<polygon fill="midnightblue" stroke="midnightblue" points="2046.98,-73.3775 2057.29,-70.9103 2047.69,-66.4136 2046.98,-73.3775"/>
</g>
<!-- Node17 -->
<g id="node15" class="node"><title>Node17</title>
<g id="a_node15"><a xlink:href="_ant-rawdump_8cc.html" target="_top" xlink:title="progs/Ant&#45;rawdump.cc">
<polygon fill="white" stroke="black" points="1794.5,-6.5 1794.5,-25.5 1909.5,-25.5 1909.5,-6.5 1794.5,-6.5"/>
<text text-anchor="middle" x="1852" y="-13.5" font-family="Helvetica,sans-Serif" font-size="10.00">progs/Ant&#45;rawdump.cc</text>
</a>
</g>
</g>
<!-- Node3&#45;&gt;Node17 -->
<g id="edge14" class="edge"><title>Node3&#45;&gt;Node17</title>
<path fill="none" stroke="midnightblue" d="M2074.83,-66.2665C2033.29,-57.1853 1972.24,-43.8031 1919,-32 1909.57,-29.9102 1899.4,-27.6412 1889.91,-25.5156"/>
<polygon fill="midnightblue" stroke="midnightblue" points="2074.17,-69.7056 2084.69,-68.4217 2075.67,-62.8671 2074.17,-69.7056"/>
</g>
<!-- Node18 -->
<g id="node16" class="node"><title>Node18</title>
<g id="a_node16"><a xlink:href="_ant-smooth_tagg_eff_8cc.html" target="_top" xlink:title="progs/Ant&#45;smoothTaggEff.cc">
<polygon fill="white" stroke="black" points="1928,-6.5 1928,-25.5 2070,-25.5 2070,-6.5 1928,-6.5"/>
<text text-anchor="middle" x="1999" y="-13.5" font-family="Helvetica,sans-Serif" font-size="10.00">progs/Ant&#45;smoothTaggEff.cc</text>
</a>
</g>
</g>
<!-- Node3&#45;&gt;Node18 -->
<g id="edge15" class="edge"><title>Node3&#45;&gt;Node18</title>
<path fill="none" stroke="midnightblue" d="M2097.06,-64.0664C2072.8,-52.4239 2037.84,-35.6429 2016.88,-25.5806"/>
<polygon fill="midnightblue" stroke="midnightblue" points="2095.56,-67.2314 2106.09,-68.4035 2098.59,-60.9208 2095.56,-67.2314"/>
</g>
<!-- Node19 -->
<g id="node17" class="node"><title>Node19</title>
<g id="a_node17"><a xlink:href="_ant_8cc.html" target="_top" xlink:title="Main Ant executable. ">
<polygon fill="white" stroke="black" points="2088,-6.5 2088,-25.5 2160,-25.5 2160,-6.5 2088,-6.5"/>
<text text-anchor="middle" x="2124" y="-13.5" font-family="Helvetica,sans-Serif" font-size="10.00">progs/Ant.cc</text>
</a>
</g>
</g>
<!-- Node3&#45;&gt;Node19 -->
<g id="edge16" class="edge"><title>Node3&#45;&gt;Node19</title>
<path fill="none" stroke="midnightblue" d="M2124,-58.1595C2124,-47.2482 2124,-34.04 2124,-25.5806"/>
<polygon fill="midnightblue" stroke="midnightblue" points="2120.5,-58.4034 2124,-68.4035 2127.5,-58.4035 2120.5,-58.4034"/>
</g>
<!-- Node20 -->
<g id="node18" class="node"><title>Node20</title>
<g id="a_node18"><a xlink:href="_etap_omega_g__fit_8cc.html" target="_top" xlink:title="progs/EtapOmegaG_fit.cc">
<polygon fill="white" stroke="black" points="2178,-6.5 2178,-25.5 2308,-25.5 2308,-6.5 2178,-6.5"/>
<text text-anchor="middle" x="2243" y="-13.5" font-family="Helvetica,sans-Serif" font-size="10.00">progs/EtapOmegaG_fit.cc</text>
</a>
</g>
</g>
<!-- Node3&#45;&gt;Node20 -->
<g id="edge17" class="edge"><title>Node3&#45;&gt;Node20</title>
<path fill="none" stroke="midnightblue" d="M2150.27,-63.7561C2173.33,-52.1274 2206.2,-35.5538 2225.98,-25.5806"/>
<polygon fill="midnightblue" stroke="midnightblue" points="2148.4,-60.7761 2141.05,-68.4035 2151.55,-67.0265 2148.4,-60.7761"/>
</g>
<!-- Node21 -->
<g id="node19" class="node"><title>Node21</title>
<g id="a_node19"><a xlink:href="_omega_eta_g__fit_8cc.html" target="_top" xlink:title="progs/OmegaEtaG_fit.cc">
<polygon fill="white" stroke="black" points="2326.5,-6.5 2326.5,-25.5 2451.5,-25.5 2451.5,-6.5 2326.5,-6.5"/>
<text text-anchor="middle" x="2389" y="-13.5" font-family="Helvetica,sans-Serif" font-size="10.00">progs/OmegaEtaG_fit.cc</text>
</a>
</g>
</g>
<!-- Node3&#45;&gt;Node21 -->
<g id="edge18" class="edge"><title>Node3&#45;&gt;Node21</title>
<path fill="none" stroke="midnightblue" d="M2171.58,-66.2279C2223.1,-54.5634 2304.22,-36.1963 2351.44,-25.5034"/>
<polygon fill="midnightblue" stroke="midnightblue" points="2170.67,-62.8453 2161.69,-68.4672 2172.21,-69.6724 2170.67,-62.8453"/>
</g>
<!-- Node22 -->
<g id="node20" class="node"><title>Node22</title>
<g id="a_node20"><a xlink:href="_p_c_a_8cc.html" target="_top" xlink:title="Tool to perform a Principal Component Analysis, based on ROOTs TPrincipal class, to create principal ...">
<polygon fill="white" stroke="black" points="2470,-6.5 2470,-25.5 2548,-25.5 2548,-6.5 2470,-6.5"/>
<text text-anchor="middle" x="2509" y="-13.5" font-family="Helvetica,sans-Serif" font-size="10.00">progs/PCA.cc</text>
</a>
</g>
</g>
<!-- Node3&#45;&gt;Node22 -->
<g id="edge19" class="edge"><title>Node3&#45;&gt;Node22</title>
<path fill="none" stroke="midnightblue" d="M2200.82,-70.3288C2269.33,-63.5239 2372.09,-51.2076 2460,-32 2467.91,-30.272 2476.39,-27.8771 2484.03,-25.5078"/>
<polygon fill="midnightblue" stroke="midnightblue" points="2200.16,-66.8767 2190.54,-71.3334 2200.84,-73.8435 2200.16,-66.8767"/>
</g>
<!-- Node23 -->
<g id="node21" class="node"><title>Node23</title>
<g id="a_node21"><a xlink:href="_single_pi0__fit_8cc.html" target="_top" xlink:title="progs/SinglePi0_fit.cc">
<polygon fill="white" stroke="black" points="2566,-6.5 2566,-25.5 2678,-25.5 2678,-6.5 2566,-6.5"/>
<text text-anchor="middle" x="2622" y="-13.5" font-family="Helvetica,sans-Serif" font-size="10.00">progs/SinglePi0_fit.cc</text>
</a>
</g>
</g>
<!-- Node3&#45;&gt;Node23 -->
<g id="edge20" class="edge"><title>Node3&#45;&gt;Node23</title>
<path fill="none" stroke="midnightblue" d="M2200.77,-71.894C2287.62,-65.4523 2433.12,-52.6502 2557,-32 2567.4,-30.2671 2578.61,-27.8708 2588.76,-25.5017"/>
<polygon fill="midnightblue" stroke="midnightblue" points="2200.45,-68.4079 2190.73,-72.6294 2200.96,-75.3892 2200.45,-68.4079"/>
</g>
<!-- Node24 -->
<g id="node22" class="node"><title>Node24</title>
<g id="a_node22"><a xlink:href="tagg_eff_plot_8cc.html" target="_top" xlink:title="progs/taggEffPlot.cc">
<polygon fill="white" stroke="black" points="2696,-6.5 2696,-25.5 2802,-25.5 2802,-6.5 2696,-6.5"/>
<text text-anchor="middle" x="2749" y="-13.5" font-family="Helvetica,sans-Serif" font-size="10.00">progs/taggEffPlot.cc</text>
</a>
</g>
</g>
<!-- Node3&#45;&gt;Node24 -->
<g id="edge21" class="edge"><title>Node3&#45;&gt;Node24</title>
<path fill="none" stroke="midnightblue" d="M2200.78,-74.592C2309.41,-70.3384 2513.9,-59.2123 2686,-32 2696.33,-30.3669 2707.47,-27.9408 2717.46,-25.5133"/>
<polygon fill="midnightblue" stroke="midnightblue" points="2200.43,-71.1027 2190.58,-74.9825 2200.7,-78.0976 2200.43,-71.1027"/>
</g>
<!-- Node25 -->
<g id="node23" class="node"><title>Node25</title>
<g id="a_node23"><a xlink:href="tagger_energies_8cc.html" target="_top" xlink:title="progs/taggerEnergies.cc">
<polygon fill="white" stroke="black" points="2820,-6.5 2820,-25.5 2942,-25.5 2942,-6.5 2820,-6.5"/>
<text text-anchor="middle" x="2881" y="-13.5" font-family="Helvetica,sans-Serif" font-size="10.00">progs/taggerEnergies.cc</text>
</a>
</g>
</g>
<!-- Node3&#45;&gt;Node25 -->
<g id="edge22" class="edge"><title>Node3&#45;&gt;Node25</title>
<path fill="none" stroke="midnightblue" d="M2200.57,-75.5378C2327.7,-72.3143 2590.12,-62.2807 2810,-32 2821.61,-30.4015 2834.15,-27.9848 2845.42,-25.5554"/>
<polygon fill="midnightblue" stroke="midnightblue" points="2200.45,-72.0396 2190.54,-75.785 2200.62,-79.0374 2200.45,-72.0396"/>
</g>
<!-- Node26 -->
<g id="node24" class="node"><title>Node26</title>
<g id="a_node24"><a xlink:href="_particle_i_d_8cc.html" target="_top" xlink:title="src/analysis/utils\l/ParticleID.cc">
<polygon fill="white" stroke="black" points="2960,-1 2960,-31 3050,-31 3050,-1 2960,-1"/>
<text text-anchor="start" x="2968" y="-19" font-family="Helvetica,sans-Serif" font-size="10.00">src/analysis/utils</text>
<text text-anchor="middle" x="3005" y="-8" font-family="Helvetica,sans-Serif" font-size="10.00">/ParticleID.cc</text>
</a>
</g>
</g>
<!-- Node3&#45;&gt;Node26 -->
<g id="edge23" class="edge"><title>Node3&#45;&gt;Node26</title>
<path fill="none" stroke="midnightblue" d="M2200.76,-74.9478C2377.31,-69.8835 2807.97,-55.4721 2951,-32 2953.88,-31.5273 2956.83,-30.9594 2959.79,-30.3251"/>
<polygon fill="midnightblue" stroke="midnightblue" points="2200.42,-71.4562 2190.52,-75.2393 2200.61,-78.4533 2200.42,-71.4562"/>
</g>
<!-- Node27 -->
<g id="node25" class="node"><title>Node27</title>
<g id="a_node25"><a xlink:href="_m_c_extracted_8cc.html" target="_top" xlink:title="src/analysis/utils\l/uncertainties/MCExtracted.cc">
<polygon fill="white" stroke="black" points="3068.5,-1 3068.5,-31 3217.5,-31 3217.5,-1 3068.5,-1"/>
<text text-anchor="start" x="3076.5" y="-19" font-family="Helvetica,sans-Serif" font-size="10.00">src/analysis/utils</text>
<text text-anchor="middle" x="3143" y="-8" font-family="Helvetica,sans-Serif" font-size="10.00">/uncertainties/MCExtracted.cc</text>
</a>
</g>
</g>
<!-- Node3&#45;&gt;Node27 -->
<g id="edge24" class="edge"><title>Node3&#45;&gt;Node27</title>
<path fill="none" stroke="midnightblue" d="M2200.78,-76.6406C2360.86,-75.1582 2741.78,-67.8069 3059,-32 3062.09,-31.6511 3065.24,-31.2584 3068.42,-30.8316"/>
<polygon fill="midnightblue" stroke="midnightblue" points="2200.52,-73.1426 2190.55,-76.73 2200.58,-80.1423 2200.52,-73.1426"/>
</g>
<!-- Node28 -->
<g id="node26" class="node"><title>Node28</title>
<g id="a_node26"><a xlink:href="_git_info_8cc.html" target="_top" xlink:title="src/base/GitInfo.cc">
<polygon fill="white" stroke="black" points="3236,-6.5 3236,-25.5 3336,-25.5 3336,-6.5 3236,-6.5"/>
<text text-anchor="middle" x="3286" y="-13.5" font-family="Helvetica,sans-Serif" font-size="10.00">src/base/GitInfo.cc</text>
</a>
</g>
</g>
<!-- Node3&#45;&gt;Node28 -->
<g id="edge25" class="edge"><title>Node3&#45;&gt;Node28</title>
<path fill="none" stroke="midnightblue" d="M2201.15,-75.8978C2417.61,-72.4793 3027.76,-60.5226 3226,-32 3236.2,-30.5321 3247.19,-28.0557 3256.94,-25.5337"/>
<polygon fill="midnightblue" stroke="midnightblue" points="2200.78,-72.4031 2190.83,-76.0589 2200.89,-79.4022 2200.78,-72.4031"/>
</g>
<!-- Node29 -->
<g id="node27" class="node"><title>Node29</title>
<g id="a_node27"><a xlink:href="system_8cc.html" target="_top" xlink:title="src/base/std_ext/system.cc">
<polygon fill="white" stroke="black" points="3354,-6.5 3354,-25.5 3492,-25.5 3492,-6.5 3354,-6.5"/>
<text text-anchor="middle" x="3423" y="-13.5" font-family="Helvetica,sans-Serif" font-size="10.00">src/base/std_ext/system.cc</text>
</a>
</g>
</g>
<!-- Node3&#45;&gt;Node29 -->
<g id="edge26" class="edge"><title>Node3&#45;&gt;Node29</title>
<path fill="none" stroke="midnightblue" d="M2200.9,-75.7081C2432.63,-71.5714 3121.88,-57.4137 3345,-32 3358.02,-30.5174 3372.11,-28.0696 3384.7,-25.577"/>
<polygon fill="midnightblue" stroke="midnightblue" points="2200.81,-72.2091 2190.88,-75.886 2200.94,-79.208 2200.81,-72.2091"/>
</g>
<!-- Node30 -->
<g id="node28" class="node"><title>Node30</title>
<g id="a_node28"><a xlink:href="_wrap_t_file_8cc.html" target="_top" xlink:title="src/base/WrapTFile.cc">
<polygon fill="white" stroke="black" points="3510,-6.5 3510,-25.5 3626,-25.5 3626,-6.5 3510,-6.5"/>
<text text-anchor="middle" x="3568" y="-13.5" font-family="Helvetica,sans-Serif" font-size="10.00">src/base/WrapTFile.cc</text>
</a>
</g>
</g>
<!-- Node3&#45;&gt;Node30 -->
<g id="edge27" class="edge"><title>Node3&#45;&gt;Node30</title>
<path fill="none" stroke="midnightblue" d="M2200.67,-76.3873C2451.56,-74.0849 3246.49,-64.3581 3501,-32 3512.35,-30.5568 3524.61,-28.0866 3535.5,-25.5626"/>
<polygon fill="midnightblue" stroke="midnightblue" points="2200.52,-72.8884 2190.56,-76.4788 2200.59,-79.8881 2200.52,-72.8884"/>
</g>
<!-- Node31 -->
<g id="node29" class="node"><title>Node31</title>
<g id="a_node29"><a xlink:href="_data_base_8cc.html" target="_top" xlink:title="src/calibration/DataBase.cc">
<polygon fill="white" stroke="black" points="3644.5,-6.5 3644.5,-25.5 3781.5,-25.5 3781.5,-6.5 3644.5,-6.5"/>
<text text-anchor="middle" x="3713" y="-13.5" font-family="Helvetica,sans-Serif" font-size="10.00">src/calibration/DataBase.cc</text>
</a>
</g>
</g>
<!-- Node3&#45;&gt;Node31 -->
<g id="edge28" class="edge"><title>Node3&#45;&gt;Node31</title>
<path fill="none" stroke="midnightblue" d="M2201.12,-76.3116C2468.08,-73.6765 3351.95,-62.7844 3634,-32 3647.32,-30.5459 3661.76,-28.073 3674.61,-25.5498"/>
<polygon fill="midnightblue" stroke="midnightblue" points="2200.71,-72.8153 2190.75,-76.4128 2200.78,-79.8149 2200.71,-72.8153"/>
</g>
<!-- Node32 -->
<g id="node30" class="node"><title>Node32</title>
<g id="a_node30"><a xlink:href="hstack_8cc.html" target="_top" xlink:title="src/root&#45;addons/analysis\l_codes/hstack.cc">
<polygon fill="white" stroke="black" points="3799.5,-1 3799.5,-31 3922.5,-31 3922.5,-1 3799.5,-1"/>
<text text-anchor="start" x="3807.5" y="-19" font-family="Helvetica,sans-Serif" font-size="10.00">src/root&#45;addons/analysis</text>
<text text-anchor="middle" x="3861" y="-8" font-family="Helvetica,sans-Serif" font-size="10.00">_codes/hstack.cc</text>
</a>
</g>
</g>
<!-- Node3&#45;&gt;Node32 -->
<g id="edge29" class="edge"><title>Node3&#45;&gt;Node32</title>
<path fill="none" stroke="midnightblue" d="M2200.85,-76.7725C2485.04,-75.6438 3476.18,-69.0774 3790,-32 3793,-31.6452 3796.07,-31.2251 3799.15,-30.7551"/>
<polygon fill="midnightblue" stroke="midnightblue" points="2200.63,-73.2733 2190.64,-76.812 2200.66,-80.2732 2200.63,-73.2733"/>
</g>
<!-- Node33 -->
<g id="node31" class="node"><title>Node33</title>
<g id="a_node31"><a xlink:href="pi0__true__calib_8cc.html" target="_top" xlink:title="src/root&#45;addons/analysis\l_codes/pi0_true_calib.cc">
<polygon fill="white" stroke="black" points="3940.5,-1 3940.5,-31 4065.5,-31 4065.5,-1 3940.5,-1"/>
<text text-anchor="start" x="3948.5" y="-19" font-family="Helvetica,sans-Serif" font-size="10.00">src/root&#45;addons/analysis</text>
<text text-anchor="middle" x="4003" y="-8" font-family="Helvetica,sans-Serif" font-size="10.00">_codes/pi0_true_calib.cc</text>
</a>
</g>
</g>
<!-- Node3&#45;&gt;Node33 -->
<g id="edge30" class="edge"><title>Node3&#45;&gt;Node33</title>
<path fill="none" stroke="midnightblue" d="M2201.25,-76.9327C2501.1,-76.3834 3588.26,-71.6408 3931,-32 3934.04,-31.6479 3937.15,-31.23 3940.28,-30.7617"/>
<polygon fill="midnightblue" stroke="midnightblue" points="2200.91,-73.4332 2190.92,-76.9505 2200.92,-80.4332 2200.91,-73.4332"/>
</g>
<!-- Node34 -->
<g id="node32" class="node"><title>Node34</title>
<g id="a_node32"><a xlink:href="_test_std_ext_8cc.html" target="_top" xlink:title="test/base/TestStdExt.cc">
<polygon fill="white" stroke="black" points="4083.5,-6.5 4083.5,-25.5 4206.5,-25.5 4206.5,-6.5 4083.5,-6.5"/>
<text text-anchor="middle" x="4145" y="-13.5" font-family="Helvetica,sans-Serif" font-size="10.00">test/base/TestStdExt.cc</text>
</a>
</g>
</g>
<!-- Node3&#45;&gt;Node34 -->
<g id="edge31" class="edge"><title>Node3&#45;&gt;Node34</title>
<path fill="none" stroke="midnightblue" d="M2201,-77.1266C2515.25,-77.349 3701.7,-75.245 4074,-32 4086.14,-30.59 4099.27,-28.0949 4110.9,-25.5396"/>
<polygon fill="midnightblue" stroke="midnightblue" points="2200.63,-73.6264 2190.63,-77.1181 2200.62,-80.6264 2200.63,-73.6264"/>
</g>
</g>
</svg>
